<?xml version="1.0" standalone="no"?><!DOCTYPE svg PUBLIC "-//W3C//DTD SVG 1.1//EN" "http://www.w3.org/Graphics/SVG/1.1/DTD/svg11.dtd"><svg width="200" height="200" viewBox="0 0 200 200" version="1.1" xmlns="http://www.w3.org/2000/svg" xmlns:xlink="http://www.w3.org/1999/xlink"><defs><style type="text/css"><![CDATA[
@font-face { font-family: ifont; src: url(http://at.alicdn.com/t/font_1442373896_4754455.eot?#iefix) format(embedded-opentype), url(http://at.alicdn.com/t/font_1442373896_4754455.woff) format(woff), url(http://at.alicdn.com/t/font_1442373896_4754455.ttf) format(truetype), url(http://at.alicdn.com/t/font_1442373896_4754455.svg#ifont) format(svg); }

]]></style></defs><g class="transform-group"><g transform="scale(0.1953125, 0.1953125)"><path d="M974.061123 785.871531 812.424792 785.871531l0 171.776272c0 14.130835-11.166317 25.581632-24.957415 25.581632l-34.297131 0c-13.787004 0-24.955368-11.450796-24.955368-25.581632L728.214878 785.871531 566.581618 785.871531c-13.789051 0-24.957415-11.482519-24.957415-25.582655l0-35.18229c0-14.128789 11.168364-25.579585 24.957415-25.579585l161.634284 0L728.215902 527.72003c0-14.128789 11.225669-25.582655 24.955368-25.582655l34.297131 0c13.791098 0 24.957415 11.453866 24.957415 25.582655l0 171.806971 161.636331 0c13.787004 0 24.952298 11.450796 24.952298 25.579585l0 35.18229C999.013421 774.389012 987.848127 785.871531 974.061123 785.871531L974.061123 785.871531 974.061123 785.871531zM312.532551 62.584384l498.69395 0c110.188588 0 199.466937 91.584881 199.466937 204.593701l0 278.120298c0 24.839735-23.815405 28.741601-23.815405 28.741601l0 0-20.053732 0c-21.025872 0-22.732747-29.113061-22.732747-29.113061l0-87.139639L79.963705 457.787284l0 320.849472c0 0 34.81083 130.271996 132.805702 130.271996l373.637746 0c0 0 25.350364 1.793856 25.350364 23.246447l0 24.811082c0 24.241101-24.438599 26.2652-24.438599 26.2652L212.769406 983.231481c-110.131283 0-199.463867-91.586928-199.463867-204.594725L13.305539 471.771787l0-102.296851L13.305539 164.881235 13.305539 61.61429M79.50731 128.074957l0 200.720488 0 62.928215 868.458481 0L947.965791 265.896906l0 0c0-121.640408-117.821429-137.820925-117.821429-137.820925L299.542702 128.07598l-53.043077 0-53.0441 0" fill="#272636"></path></g></g></svg>