<?xml version="1.0" standalone="no"?><!DOCTYPE svg PUBLIC "-//W3C//DTD SVG 1.1//EN" "http://www.w3.org/Graphics/SVG/1.1/DTD/svg11.dtd"><svg width="200" height="200" viewBox="0 0 200 200" version="1.1" xmlns="http://www.w3.org/2000/svg" xmlns:xlink="http://www.w3.org/1999/xlink"><defs><style type="text/css"><![CDATA[
@font-face { font-family: ifont; src: url(http://at.alicdn.com/t/font_1442373896_4754455.eot?#iefix) format(embedded-opentype), url(http://at.alicdn.com/t/font_1442373896_4754455.woff) format(woff), url(http://at.alicdn.com/t/font_1442373896_4754455.ttf) format(truetype), url(http://at.alicdn.com/t/font_1442373896_4754455.svg#ifont) format(svg); }

]]></style></defs><g class="transform-group"><g transform="scale(0.1953125, 0.1953125)"><path d="M24.920541 87.010225l0 603.963289L629.363614 690.973514l0-603.963289L24.920541 87.010225 24.920541 87.010225zM572.918447 631.706088 87.490009 631.706088l0-482.606179 485.428438 0L572.918447 631.706088zM540.583833 210.413472l-144.999168 154.205374 176.187945 206.22524-178.211504 0-106.119737-126.747623-117.860331 126.747623L97.483626 570.844087l155.935419-164.769087L86.550197 210.413472l177.807921 0 98.824199 117.501904 106.926902-117.501904L540.583833 210.413472zM329.159992 755.885456l242.612617 0 0 60.207238-242.612617 0 0-60.207238ZM753.542982 632.643078 753.542982 755.885456 691.453298 755.885456 691.453298 690.973514 631.24606 690.973514 631.24606 755.885456 631.24606 796.334063 631.24606 816.092694 753.542982 816.092694 778.474812 816.092694 814.692853 816.092694 814.692853 632.643078ZM629.363614 270.457018 629.363614 328.78181 754.482794 328.78181 754.482794 390.625957 629.363614 390.625957 629.363614 450.138919 754.482794 450.138919 754.482794 511.983066 629.363614 511.983066 629.363614 570.844087 814.692853 570.844087 814.692853 270.457018ZM816.572477 27.7428 210.726743 27.7428 210.726743 87.010225 269.054356 87.010225 408.28765 87.010225 754.482794 87.010225 754.482794 328.78181 935.107329 328.78181 935.107329 935.567357 754.482794 936.507169 269.054356 936.507169 269.054356 632.643078 210.726743 632.643078 210.726743 995.777416 995.777416 995.777416 995.777416 210.246959ZM551.280192 772.344867 604.747876 824.906606 604.747876 825.815374 659.358576 881.645288 713.969275 936.255988 714.13861 936.255988 768.579974 936.255988 768.754954 936.255988 823.357187 936.255988 768.754954 825.815374 936.961552 825.815374 936.961552 715.685208 768.754954 715.685208 823.357187 604.643453 768.754954 604.643453 768.579974 604.643453 714.13861 604.643453 659.358576 660.47619 604.747876 715.685208Z" fill="#272636"></path></g></g></svg>