<?xml version="1.0" standalone="no"?><!DOCTYPE svg PUBLIC "-//W3C//DTD SVG 1.1//EN" "http://www.w3.org/Graphics/SVG/1.1/DTD/svg11.dtd"><svg width="200" height="200" viewBox="0 0 200 200" version="1.1" xmlns="http://www.w3.org/2000/svg" xmlns:xlink="http://www.w3.org/1999/xlink"><defs><style type="text/css"><![CDATA[
@font-face { font-family: ifont; src: url(http://at.alicdn.com/t/font_1442373896_4754455.eot?#iefix) format(embedded-opentype), url(http://at.alicdn.com/t/font_1442373896_4754455.woff) format(woff), url(http://at.alicdn.com/t/font_1442373896_4754455.ttf) format(truetype), url(http://at.alicdn.com/t/font_1442373896_4754455.svg#ifont) format(svg); }

]]></style></defs><g class="transform-group"><g transform="scale(0.1953125, 0.1953125)"><path d="M181.085175 403.612594 181.861822 404.389241 479.787212 106.46385 425.430955 52.089532 181.085175 296.426281 72.399753 187.740859 18.034465 242.106147 180.317559 404.389241ZM448.585872 557.072617 53.426087 557.072617c-19.542605 0-35.382591 15.839986-35.382591 35.382591l0 395.159785c0 19.542605 15.839986 35.391622 35.382591 35.391622l395.159785 0c19.542605 0 35.382591-15.849017 35.382591-35.391622L483.968463 592.455208C483.968463 572.912603 468.128477 557.072617 448.585872 557.072617zM448.658118 991.164089 53.353841 991.164089 53.353841 588.924173l395.304277 0L448.658118 991.164089zM979.58663 557.072617 584.417815 557.072617c-19.542605 0-35.382591 15.839986-35.382591 35.382591l0 395.159785c0 19.542605 15.839986 35.391622 35.382591 35.391622l395.159785 0c19.542605 0 35.382591-15.849017 35.382591-35.391622L1014.96019 592.455208C1014.969221 572.912603 999.129235 557.072617 979.58663 557.072617zM979.658876 991.164089 584.345568 991.164089 584.345568 588.924173l395.304277 0L979.649846 991.164089zM979.58663 0 584.417815 0c-19.542605 0-35.382591 15.839986-35.382591 35.382591l0 395.159785c0 19.542605 15.839986 35.382591 35.382591 35.382591l395.159785 0c19.542605 0 35.382591-15.839986 35.382591-35.382591L1014.96019 35.382591C1014.969221 15.839986 999.129235 0 979.58663 0zM979.658876 434.091472 584.345568 434.091472 584.345568 31.842526l395.304277 0L979.649846 434.091472z" fill="#272636"></path></g></g></svg>