<?xml version="1.0" standalone="no"?><!DOCTYPE svg PUBLIC "-//W3C//DTD SVG 1.1//EN" "http://www.w3.org/Graphics/SVG/1.1/DTD/svg11.dtd"><svg width="200" height="200" viewBox="0 0 200 200" version="1.1" xmlns="http://www.w3.org/2000/svg" xmlns:xlink="http://www.w3.org/1999/xlink"><defs><style type="text/css"><![CDATA[
@font-face { font-family: ifont; src: url(http://at.alicdn.com/t/font_1442373896_4754455.eot?#iefix) format(embedded-opentype), url(http://at.alicdn.com/t/font_1442373896_4754455.woff) format(woff), url(http://at.alicdn.com/t/font_1442373896_4754455.ttf) format(truetype), url(http://at.alicdn.com/t/font_1442373896_4754455.svg#ifont) format(svg); }

]]></style></defs><g class="transform-group"><g transform="scale(0.1953125, 0.1953125)"><path d="M373.03808 703.31904l190.74048-193.64352L373.38112 321.00864c-15.06816-14.9248-15.17568-39.23456-0.24576-54.30272 14.9248-15.06816 39.23968-15.17568 54.29248-0.24576l244.80256 242.55488-244.47488 248.20736c-14.87872 15.104-39.18848 15.2832-54.2976 0.4096-7.62368-7.5264-11.44832-17.43872-11.44832-27.37152C362.0096 720.5376 365.68576 710.79936 373.03808 703.31904zM512 1021.44c-280.90368 0-509.44-228.53632-509.44-509.44S231.09632 2.56 512 2.56c280.89856 0 509.44 228.53632 509.44 509.44S792.89856 1021.44 512 1021.44zM512 79.36c-238.55616 0-432.64 194.08384-432.64 432.64 0 238.56128 194.08384 432.64 432.64 432.64 238.56128 0 432.64-194.07872 432.64-432.64C944.64 273.44384 750.56128 79.36 512 79.36z" fill="#272636"></path></g></g></svg>