<?xml version="1.0" standalone="no"?><!DOCTYPE svg PUBLIC "-//W3C//DTD SVG 1.1//EN" "http://www.w3.org/Graphics/SVG/1.1/DTD/svg11.dtd"><svg width="200" height="200" viewBox="0 0 200 200" version="1.1" xmlns="http://www.w3.org/2000/svg" xmlns:xlink="http://www.w3.org/1999/xlink"><defs><style type="text/css"><![CDATA[
@font-face { font-family: ifont; src: url(http://at.alicdn.com/t/font_1442373896_4754455.eot?#iefix) format(embedded-opentype), url(http://at.alicdn.com/t/font_1442373896_4754455.woff) format(woff), url(http://at.alicdn.com/t/font_1442373896_4754455.ttf) format(truetype), url(http://at.alicdn.com/t/font_1442373896_4754455.svg#ifont) format(svg); }

]]></style></defs><g class="transform-group"><g transform="scale(0.1953125, 0.1953125)"><path d="M532.45952 399.38048c33.93536 0 61.46048-27.50464 61.46048-61.44 0-33.93536-27.52512-61.44-61.46048-61.44-33.93536 0-61.46048 27.50464-61.46048 61.44C471.01952 371.85536 498.52416 399.38048 532.45952 399.38048zM532.45952 665.6c-33.93536 0-61.46048 27.50464-61.46048 61.44s27.52512 61.44 61.46048 61.44c33.93536 0 61.46048-27.50464 61.46048-61.44S566.39488 665.6 532.45952 665.6zM532.45952 471.04c-33.93536 0-61.46048 27.50464-61.46048 61.44 0 33.93536 27.52512 61.44 61.46048 61.44 33.93536 0 61.46048-27.50464 61.46048-61.44C593.92 498.54464 566.39488 471.04 532.45952 471.04z" fill="#272636"></path></g></g></svg>